<?xml version="1.0" standalone="no"?>
<!DOCTYPE svg PUBLIC "-//W3C//DTD SVG 20010904//EN"
 "http://www.w3.org/TR/2001/REC-SVG-20010904/DTD/svg10.dtd">
<svg version="1.0" xmlns="http://www.w3.org/2000/svg"
 width="156.000000pt" height="174.000000pt" viewBox="0 0 156.000000 174.000000"
 preserveAspectRatio="xMidYMid meet">

<g transform="translate(0.000000,174.000000) scale(0.100000,-0.100000)"
fill="#000000" stroke="none">
<path d="M10 1412 c0 -219 4 -330 11 -345 34 -65 112 -107 201 -107 l38 0 0
-470 0 -470 85 0 85 0 0 470 0 470 38 0 c60 1 124 19 160 47 60 45 62 58 62
413 l0 320 -85 0 -85 0 0 -260 0 -260 -45 0 -45 0 0 260 0 261 -82 -3 -83 -3
-3 -257 -2 -258 -45 0 -45 0 0 258 0 258 -80 -1 -80 0 0 -323z"/>
<path d="M1435 1729 c-289 -42 -378 -228 -392 -821 l-6 -248 172 0 171 0 0
-320 0 -320 85 0 85 0 0 860 0 860 -27 -1 c-16 -1 -55 -5 -88 -10z m-55 -544
l0 -355 -87 0 -86 0 6 163 c12 292 46 446 115 520 52 55 52 56 52 -328z"/>
</g>
</svg>
