<?xml version="1.0" standalone="no"?>
<!DOCTYPE svg PUBLIC "-//W3C//DTD SVG 20010904//EN"
 "http://www.w3.org/TR/2001/REC-SVG-20010904/DTD/svg10.dtd">
<svg version="1.0" xmlns="http://www.w3.org/2000/svg"
 width="173.000000pt" height="146.000000pt" viewBox="0 0 173.000000 146.000000"
 preserveAspectRatio="xMidYMid meet">

<g transform="translate(0.000000,146.000000) scale(0.100000,-0.100000)"
fill="#000000" stroke="none">
<path d="M172 1413 c-6 -27 -14 -65 -17 -85 l-7 -38 446 0 446 0 0 -260 0
-260 -499 0 -498 0 -12 -62 c-7 -35 -15 -73 -18 -86 -5 -22 -3 -22 81 -22 l86
0 0 -170 0 -170 95 0 c52 0 95 -3 95 -7 0 -5 -5 -25 -10 -45 -20 -72 29 -168
100 -198 73 -30 179 10 216 82 15 28 16 104 3 148 -3 13 32 15 274 18 152 1
277 -1 277 -5 0 -5 -5 -25 -10 -45 -20 -72 29 -168 100 -198 73 -30 179 10
216 82 15 28 16 104 3 148 -3 12 12 15 94 18 l97 3 0 272 0 272 -213 236
c-212 236 -212 237 -257 240 l-45 4 -3 88 -3 87 -514 0 -513 0 -10 -47z m1242
-508 l145 -160 -2 -160 -2 -160 -600 0 -600 0 -3 88 -3 87 431 0 430 0 0 262
0 263 29 -30 c17 -17 95 -102 175 -190z"/>
<path d="M102 1063 c-6 -27 -14 -65 -17 -86 l-7 -38 158 3 158 3 17 83 16 82
-158 0 -157 0 -10 -47z"/>
</g>
</svg>
