<?xml version="1.0" standalone="no"?>
<!DOCTYPE svg PUBLIC "-//W3C//DTD SVG 20010904//EN"
 "http://www.w3.org/TR/2001/REC-SVG-20010904/DTD/svg10.dtd">
<svg version="1.0" xmlns="http://www.w3.org/2000/svg"
 width="155.000000pt" height="173.000000pt" viewBox="0 0 155.000000 173.000000"
 preserveAspectRatio="xMidYMid meet">

<g transform="translate(0.000000,173.000000) scale(0.100000,-0.100000)"
fill="#000000" stroke="none">
<path d="M350 1680 l0 -40 -170 0 -170 0 0 -815 0 -815 770 0 770 0 0 815 0
815 -170 0 -170 0 0 40 0 40 -430 0 -430 0 0 -40z m690 -215 l0 -85 -260 0
-260 0 0 85 0 85 260 0 260 0 0 -85z m-690 -125 l0 -130 430 0 430 0 0 130 0
130 85 0 85 0 0 -650 0 -650 -603 2 -602 3 -3 635 c-1 349 0 641 3 648 3 8 31
12 90 12 l85 0 0 -130z"/>
<path d="M845 820 l-209 -209 -71 64 -72 64 -34 -37 c-19 -20 -45 -49 -57 -63
l-23 -26 132 -117 132 -118 268 268 269 269 -57 57 c-32 32 -60 58 -63 58 -3
0 -99 -94 -215 -210z"/>
</g>
</svg>
