<svg xmlns="http://www.w3.org/2000/svg" xmlns:xlink="http://www.w3.org/1999/xlink" width="24" height="24"><defs><path id="a" d="M23.954 2.36a9.798 9.798 0 0 1-2.826.788A5.013 5.013 0 0 0 23.29.38a10.06 10.06 0 0 1-3.126 1.204A4.864 4.864 0 0 0 16.574 0c-2.717 0-4.92 2.24-4.92 4.998 0 .396.045.777.127 1.142C7.691 5.942 4.065 3.946 1.638.93a4.971 4.971 0 0 0-.665 2.515c0 1.737.87 3.265 2.189 4.163a4.854 4.854 0 0 1-2.23-.625v.061c0 2.423 1.694 4.446 3.947 4.906a4.926 4.926 0 0 1-1.296.174c-.315 0-.615-.03-.915-.088.63 1.986 2.444 3.432 4.602 3.474A9.76 9.76 0 0 1 0 17.58a13.826 13.826 0 0 0 7.555 2.246c9.055 0 14.002-7.618 14.002-14.216 0-.213 0-.426-.015-.64A10.03 10.03 0 0 0 24 2.38l-.046-.02z"/></defs><use xlink:href="#a" fill="#3B95CD" fill-rule="evenodd" transform="translate(0 2)"/></svg>