<?xml version="1.0" standalone="no"?>
<!DOCTYPE svg PUBLIC "-//W3C//DTD SVG 20010904//EN"
 "http://www.w3.org/TR/2001/REC-SVG-20010904/DTD/svg10.dtd">
<svg version="1.0" xmlns="http://www.w3.org/2000/svg"
 width="172.000000pt" height="172.000000pt" viewBox="0 0 172.000000 172.000000"
 preserveAspectRatio="xMidYMid meet">

<g transform="translate(0.000000,172.000000) scale(0.100000,-0.100000)"
fill="#000000" stroke="none">
<path d="M770 1503 c-421 -113 -766 -207 -768 -208 -2 -2 17 -79 42 -172 l46
-169 0 -477 0 -477 815 0 815 0 0 591 0 591 -70 260 c-38 143 -70 262 -70 264
0 12 -118 -17 -810 -203z m469 -301 c-164 -1 -436 -1 -606 0 l-308 3 565 151
565 151 41 -151 40 -151 -297 -3z m311 -602 l0 -430 -650 0 -650 0 0 430 0
430 650 0 650 0 0 -430z"/>
<path d="M430 775 l0 -85 85 0 85 0 0 85 0 85 -85 0 -85 0 0 -85z"/>
<path d="M777 853 c-4 -3 -7 -42 -7 -85 l0 -78 300 0 300 0 0 85 0 85 -293 0
c-162 0 -297 -3 -300 -7z"/>
<path d="M430 425 l0 -85 85 0 85 0 0 85 0 85 -85 0 -85 0 0 -85z"/>
<path d="M772 428 l3 -83 298 -3 297 -2 0 85 0 85 -300 0 -301 0 3 -82z"/>
</g>
</svg>
